<svg width="20" height="20" viewBox="0 0 20 20" fill="none" xmlns="http://www.w3.org/2000/svg">
<path fill-rule="evenodd" clip-rule="evenodd" d="M16.3284 12.3535C15.6458 14.1882 14.1882 15.6458 12.3535 16.3284L12.0314 13.7508C12.7733 13.3611 13.3897 12.7647 13.8038 12.038L16.3284 12.3535ZM16.3284 7.64646L13.9281 7.94649C13.5233 7.12355 12.8676 6.44633 12.0607 6.0147L12.3535 3.67165C14.1882 4.35423 15.6458 5.81181 16.3284 7.64646ZM3.67165 12.3535C4.35423 14.1882 5.81181 15.6458 7.64646 16.3284L7.96865 13.7508C7.22668 13.3611 6.61033 12.7647 6.19622 12.038L3.67165 12.3535ZM6.07189 7.94649C6.47667 7.12355 7.13245 6.44633 7.93934 6.0147L7.64646 3.67165C5.81181 4.35423 4.35423 5.81181 3.67165 7.64646L6.07189 7.94649ZM7.625 9.87499C7.625 8.56535 8.68504 7.50328 9.99391 7.5H10.0061C11.315 7.50328 12.375 8.56535 12.375 9.87499C12.375 11.1867 11.3117 12.25 10 12.25C8.68832 12.25 7.625 11.1867 7.625 9.87499ZM18.75 10C18.75 14.8325 14.8325 18.75 10 18.75C5.16751 18.75 1.25 14.8325 1.25 10C1.25 5.16751 5.16751 1.25 10 1.25C14.8325 1.25 18.75 5.16751 18.75 10Z" fill="white"/>
</svg>
