<svg width="20" height="20" viewBox="0 0 20 20" fill="none" xmlns="http://www.w3.org/2000/svg">
<path d="M8.52424 11.5744C9.59694 12.765 10.443 13.1067 11.875 13.69L13.8123 12.0033C13.8697 11.9601 13.9378 11.9369 14.0076 11.9369C14.0773 11.9369 14.1454 11.9601 14.2028 12.0033L17.7999 14.539C17.9365 14.6288 18.0521 14.7521 18.1376 14.8992C18.2231 15.0463 18.2762 15.2132 18.2926 15.3866C18.3091 15.56 18.2884 15.7352 18.2324 15.8984C18.1763 16.0616 18.0863 16.2082 17.9695 16.3268L16.284 18.1484C16.0426 18.4094 15.746 18.6009 15.4205 18.7058C15.095 18.8108 14.7508 18.826 14.4187 18.75C11.1053 18.0013 8.50324 16.8252 6.05766 14.2674C3.66636 11.6841 2.01159 8.39717 1.29408 4.80522C1.2232 4.44745 1.238 4.07571 1.33703 3.72602C1.43606 3.37634 1.61598 3.06058 1.85934 2.80934L3.6065 0.96525C3.71462 0.843691 3.84647 0.750467 3.99219 0.69256C4.1379 0.634653 4.2937 0.613562 4.44792 0.630868C4.60214 0.648174 4.75078 0.703427 4.88272 0.792491C5.01465 0.881554 5.12646 1.00212 5.20978 1.14516L7.60441 5.03011C7.64572 5.09112 7.66801 5.16503 7.66801 5.24094C7.66801 5.31686 7.64572 5.39077 7.60441 5.45178L6.02683 7.52637C6.5744 9.06177 7.42751 10.4445 8.52424 11.5744Z" fill="white"/>
</svg>
