<svg width="20" height="20" viewBox="0 0 20 20" fill="none" xmlns="http://www.w3.org/2000/svg">
<path fill-rule="evenodd" clip-rule="evenodd" d="M17.5 17.375C17.5 18.4796 16.6046 19.375 15.5 19.375H4.5C3.39543 19.375 2.5 18.4796 2.5 17.375L2.5 2.625C2.5 1.52043 3.39543 0.625 4.5 0.625L15.5 0.625C16.6046 0.625 17.5 1.52043 17.5 2.625V17.375ZM6.875 4.75002L13.125 4.75002V2.75002H6.875V4.75002ZM10 11.375C11.2427 11.375 12.25 10.3677 12.25 9.12502C12.25 7.88237 11.2427 6.87502 10 6.87502C8.75737 6.87502 7.75002 7.88237 7.75002 9.12502C7.75002 10.3677 8.75737 11.375 10 11.375ZM14.375 16.875H5.625C5.625 14.2517 7.37666 13.125 10 13.125C12.6234 13.125 14.375 14.2517 14.375 16.875Z" fill="white"/>
</svg>
